#!OML:ASF H:\LiuWeirdWalks\Patient Classification 1\Patient 1\Session 1\male.ASF
:FULLY-SPECIFIED
:DEGREES
554
root -0.634247 18.1068 -28.978 5.85516 8.62906 5.18537
lowerback 9.78087 -0.688368 14.0521
upperback 0.374284 1.5513 14.437
thorax -5.26648 0.659702 7.61803
lowerneck -27.9137 0.370863 11.8421
upperneck 26.8414 0.327852 -15.7547
head 13.8219 -0.889327 -8.4999
rclavicle -2.78299e-014 -4.45278e-014
rhumerus -29.0915 -20.981 -45.8857
rradius 26.9965
rwrist -9.96726
rhand -17.4475 -4.55684
rfingers 7.12502
rthumb 8.80356 -34.3532
lclavicle -2.78299e-014 -4.45278e-014
lhumerus -37.6529 -16.4229 102.494
lradius 48.2189
lwrist 3.8113
lhand -6.61638 -6.03627
lfingers 7.12502
lthumb 19.2397 23.032
rfemur -3.00269 1.98769 16.003
rtibia 22.7002
rfoot -14.2516 -28.0687
rtoes -1.84121
lfemur -30.0839 3.75803 -22.1246
ltibia 49.6228
lfoot -3.78587 16.4545
ltoes 19.0733
555
root -0.636986 18.1085 -28.9399 5.90163 8.59199 5.17106
lowerback 9.8309 -0.733757 13.9663
upperback 0.399822 1.49322 14.5063
thorax -5.26967 0.635107 7.75521
lowerneck -27.9174 0.456055 11.7765
upperneck 26.8796 0.509161 -15.8245
head 13.8752 -0.825296 -8.493
rclavicle -8.74653e-015 5.40694e-014
rhumerus -28.6727 -20.9425 -45.8434
rradius 26.8049
rwrist -9.86588
rhand -17.4641 -4.59519
rfingers 7.12502
rthumb 8.78747 -34.3922
lclavicle -8.74653e-015 5.40694e-014
lhumerus -37.7152 -16.1333 102.574
lradius 48.0596
lwrist 3.61199
lhand -6.64317 -6.0957
lfingers 7.12502
lthumb 19.214 22.9752
rfemur -2.82223 2.01274 16.0486
rtibia 22.4826
rfoot -14.1903 -28.0502
rtoes -1.96093
lfemur -30.2976 3.78445 -22.2736
ltibia 48.4385
lfoot -3.87548 16.1505
ltoes 16.3778
556
root -0.638774 18.1101 -28.9016 5.96691 8.54325 5.15903
lowerback 9.8811 -0.780672 13.8733
upperback 0.419239 1.43359 14.578
thorax -5.2796 0.609639 7.90002
lowerneck -27.9335 0.562465 11.7191
upperneck 26.9294 0.720846 -15.9031
head 13.9424 -0.748299 -8.488
rclavicle -2.46493e-014 -1.20861e-013
rhumerus -28.2445 -20.8661 -45.8131
rradius 26.6327
rwrist -9.79123
rhand -17.4739 -4.65328
rfingers 7.12502
rthumb 8.77802 -34.4507
lclavicle -2.46493e-014 -1.20861e-013
lhumerus -37.7669 -15.8397 102.653
lradius 47.8891
lwrist 3.4377
lhand -6.61157 -6.10285
lfingers 7.12502
lthumb 19.2444 22.965
rfemur -2.66504 2.01975 16.0796
rtibia 22.2672
rfoot -14.1406 -27.9972
rtoes -2.06381
lfemur -30.4841 3.78089 -22.4243
ltibia 47.1099
lfoot -3.93959 15.7641
ltoes 13.3377
557
root -0.640112 18.1113 -28.8626 6.04116 8.49933 5.15116
lowerback 9.92245 -0.68928 13.8872
upperback 0.407628 1.56122 14.4812
thorax -5.3163 0.668143 7.76073
lowerneck -27.9438 0.317678 11.4789
upperneck 27.0087 0.372046 -15.5828
head 13.9079 -0.882383 -8.3689
rclavicle -2.22639e-014 -1.17681e-013
rhumerus -28.2777 -21.2116 -45.711
rradius 26.5537
rwrist -9.73657
rhand -17.4925 -4.71077
rfingers 7.12502
rthumb 8.76013 -34.509
lclavicle -2.22639e-014 -1.17681e-013
lhumerus -37.8927 -16.1852 102.686
lradius 47.7289
lwrist 3.34693
lhand -6.51094 -6.04732
lfingers 7.12502
lthumb 19.3411 23.0108
rfemur -2.51266 2.01275 16.1021
rtibia 22.0517
rfoot -14.0876 -27.9329
rtoes -2.16822
lfemur -30.6297 3.73882 -22.5738
ltibia 45.6512
lfoot -3.96255 15.2897
ltoes 10.0161
558
root -0.641106 18.1123 -28.8225 6.11881 8.4691 5.1621
lowerback 9.95653 -0.549292 13.9281
upperback 0.383962 1.75202 14.3164
thorax -5.35974 0.754864 7.51765
lowerneck -27.9671 -0.00828736 11.2613
upperneck 27.0686 -0.137959 -15.1743
head 13.8398 -1.07288 -8.24104
rclavicle 3.18055e-014 1.17681e-013
rhumerus -28.4712 -21.7627 -45.5658
rradius 26.4832
rwrist -9.64258
rhand -17.5007 -4.73072
rfingers 7.12502
rthumb 8.75222 -34.5293
lclavicle 3.18055e-014 1.17681e-013
lhumerus -38.0462 -16.7765 102.701
lradius 47.5814
lwrist 3.29512
lhand -6.35377 -5.97721
lfingers 7.12502
lthumb 19.4922 23.0657
rfemur -2.34476 1.99183 16.1037
rtibia 21.8205
rfoot -14.0447 -27.8661
rtoes -2.25522
lfemur -30.7257 3.64641 -22.7307
ltibia 44.0725
lfoot -3.94272 14.7403
ltoes 6.55422
559
root -0.642424 18.1135 -28.7813 6.19464 8.46491 5.17814
lowerback 9.98001 -0.425743 13.9564
upperback 0.362971 1.91698 14.157
thorax -5.39251 0.829659 7.29192
lowerneck -27.9703 -0.294985 11.0978
upperneck 27.0801 -0.601706 -14.8086
head 13.76 -1.24325 -8.12904
rclavicle 2.94201e-014 1.59028e-014
rhumerus -28.6225 -22.3449 -45.4193
rradius 26.3865
rwrist -9.49893
rhand -17.4981 -4.73093
rfingers 7.12502
rthumb 8.75465 -34.5294
lclavicle 2.94201e-014 1.59028e-014
lhumerus -38.1813 -17.3553 102.711
lradius 47.4332
lwrist 3.27831
lhand -6.164 -5.9065
lfingers 7.12502
lthumb 19.6747 23.1179
rfemur -2.14967 1.97146 16.1086
rtibia 21.5627
rfoot -13.9882 -27.8223
rtoes -2.34921
lfemur -30.7745 3.50161 -22.8753
ltibia 42.386
lfoot -3.87197 14.1416
ltoes 3.10658
